<svg xmlns="http://www.w3.org/2000/svg" viewBox="0 0 247 46">
<path d="M238,14.4a9.16,9.16,0,0,1-2.55-.33l2.49-5.55,2.49,5.55a8.34,8.34,0,0,1-2.44.33h0Zm8.81,4.22L240.95,5.93a3,3,0,0,0-2.88-2h-0.22a3,3,0,0,0-2.94,2l-5.82,12.71a2,2,0,0,0,3.22,2.44,2,2,0,0,0,.43-0.67l1.33-2.79a13.34,13.34,0,0,0,4,.61,11.28,11.28,0,0,0,3.82-.58l1.28,2.79a2,2,0,0,0,2.66,1.05,2,2,0,0,0,.93-2.83v0Zm-21-1.12h-1.11V5.82a2.05,2.05,0,0,0-2.14-2.1,2,2,0,0,0-2.11,2.11V17.48H213V5.82a2.16,2.16,0,1,0-4.32,0V19.51a2,2,0,0,0,2.11,2.11h12.91v1.89a2,2,0,0,0,2.11,2.11,2,2,0,0,0,2-1.28,2,2,0,0,0,.12-0.83V19.58a1.92,1.92,0,0,0-2.11-2.11Zm-21.48,0h-1.11V5.82A2.05,2.05,0,0,0,201,3.72a2,2,0,0,0-2.11,2.11V17.48h-7.42V5.82a2.16,2.16,0,1,0-4.32,0V19.51a2,2,0,0,0,2.11,2.11h12.91v1.89a2,2,0,0,0,2.11,2.11,2,2,0,0,0,2.11-2.11V19.58A1.92,1.92,0,0,0,204.32,17.48ZM180.43,3.88h-0.17c-1.28,0-2.11.61-3,1.89l-7,9.93V6a2.09,2.09,0,1,0-4.18,0V19.2a2.24,2.24,0,0,0,2.38,2.39h0.22a3.53,3.53,0,0,0,3-1.89l7-9.93v9.71a2.05,2.05,0,1,0,4.1,0V6.27a2.23,2.23,0,0,0-2.44-2.39h0Zm-20.87,0h-12A2,2,0,0,0,145.48,6V19.7a2.05,2.05,0,0,0,.62,1.53,2,2,0,0,0,1.54.58,2,2,0,0,0,2.11-2.11V8h7.65V19.7a2,2,0,0,0,2.16,2.11,2.07,2.07,0,0,0,2.16-2.17V5.93A2,2,0,0,0,159.56,3.88ZM128.61,17.75a4.74,4.74,0,0,1-4.82-5,4.75,4.75,0,0,1,4.82-4.94,4.72,4.72,0,0,1,4.82,4.94A4.73,4.73,0,0,1,128.61,17.75Zm0-14a8.89,8.89,0,0,0-9.09,9,8.85,8.85,0,0,0,9.09,9,9,9,0,0,0,9.09-9.1A8.87,8.87,0,0,0,128.61,3.77ZM111.15,17.48h-7a13.55,13.55,0,0,0,1.05-3,25,25,0,0,0,.46-4.39L105.77,8h5.43Zm5.38,0h-1.11V6a2,2,0,0,0-.13-0.82,2,2,0,0,0-2-1.29h-9.81A1.88,1.88,0,0,0,101.57,6V8.78a25.64,25.64,0,0,1-.41,5.2,8.64,8.64,0,0,1-1.39,3.49H99.3a1.91,1.91,0,0,0-2.05,2.11v3.94a2,2,0,0,0,2.11,2.11,2,2,0,0,0,2.11-2.11V21.64h12.91v1.89a2,2,0,0,0,2.09,2.11,2,2,0,0,0,2.11-2.11V19.58a1.86,1.86,0,0,0-2.05-2.11h0Zm-28.77.28a4.74,4.74,0,0,1-4.82-5,4.82,4.82,0,1,1,9.64,0A4.7,4.7,0,0,1,87.76,17.75Zm0-14a8.89,8.89,0,0,0-9.09,9,8.84,8.84,0,0,0,9.1,9,9,9,0,0,0,9.09-9.1,8.8,8.8,0,0,0-9.09-9v0ZM70.2,17.45h-7a13.53,13.53,0,0,0,1.05-3,24.88,24.88,0,0,0,.46-4.39L64.82,8h5.43Zm5.38,0H74.47V6a2,2,0,0,0-2.11-2.11H62.56A1.88,1.88,0,0,0,60.62,6V8.78A22.12,22.12,0,0,1,60.23,14a8.64,8.64,0,0,1-1.39,3.49H58.37a1.91,1.91,0,0,0-2.05,2.11v3.94a2,2,0,0,0,2.15,2.1,2,2,0,0,0,2.11-2.11V21.64H73.49v1.89a2,2,0,0,0,2.11,2.11,2,2,0,0,0,2.11-2.11V19.58a1.92,1.92,0,0,0-2.11-2.11"></path>
<path d="M19.78,0C32.63,0,42.51,8.86,42.51,22s-9.88,22.3-22.74,22.3H5.33A5.1,5.1,0,0,1,0,39V5.52A5.25,5.25,0,0,1,5.33,0H19.78Z" style="fill:#ff6900"></path>
<path d="M34.57,17.23c-0.07.55-.69,0.55-1,0.07-0.9-1.52-2.07-1.8-3.94-1.94-1.39-.07-3,0.07-4.56.07H25l-0.11-.06a0.31,0.31,0,0,1-.11-0.21c0.28-1.31,1.39-3.72,2.56-3.94,0.55-.07,1.8-0.21,2.49-0.21C33,11,34.71,14.67,34.57,17.23Zm-18,12.55a22.11,22.11,0,0,0,7.19.69,19.13,19.13,0,0,0,8.92-2.91c-1,2.64-5,4.28-8.71,4.69,0,0.21-.07.34-0.07,0.55a14.91,14.91,0,0,0,6.77-1.94c-0.69,2.56-4.15,3.6-7.33,3.81a4.09,4.09,0,0,1-.28.55,15.88,15.88,0,0,0,4.64-.62c-1.46,2.7-7.68,4.57-12.93,2.1a16.62,16.62,0,0,0,1.8-6.92h0ZM33.95,11.35a6.07,6.07,0,0,0-4.36-1.66c-2.07,0-3.8.55-6.36,0.62-1.73.07-3.32-3.72-5.39-4.22a2.69,2.69,0,0,0-4.21-1.24c-1.17-.69-3-0.34-3,1-1.31-.41-3,0.28-2.28,2.08-3.25.07-3.8,3-1.66,3.25C3.8,12.74,5.12,15.51,7.47,15c0.42,4.15,2.28,9.55-.76,10.87a8.14,8.14,0,0,1-4.36-.14L0,25.06V27.2A21.34,21.34,0,0,0,6,28c4-.41,4.22-3.72,4-6.64s-1.17-6.16-.83-8.51l-0.14-.14c-1.45,1.52-2.42,1.11-2.56.62C6.31,12.39,8,11.15,9,10.73c0-.07.07-0.14,0.07-0.21-0.9.14-2,0-2.07-.62s1.52-1.52,3.6-1.31c0.07,0,.07-0.07.14-0.07l-0.41-.21a0.72,0.72,0,0,1-.46-1,1.48,1.48,0,0,1,1.24-.46A4.63,4.63,0,0,1,13,7.22c0.07,0,.07-0.07.14-0.07a2.47,2.47,0,0,1-.41-0.41,0.53,0.53,0,0,1,0-.7,1.44,1.44,0,0,1,1.66.28l0.34,0.34h0.11l0.1-.06a0.75,0.75,0,0,1-.21-0.46A0.41,0.41,0,0,1,15,5.57a0.84,0.84,0,0,1,.83.34,3.38,3.38,0,0,1,.41.86A5.74,5.74,0,0,0,12,8.93a6.61,6.61,0,0,0-.83,5.68,40.57,40.57,0,0,0,2,6.23v0.07C14.85,25.68,18,37.44,2.63,43.68a6.33,6.33,0,0,0,2.56.62H6.78a20,20,0,0,0,6.84-5.67c7.05,3.11,13.46,1.52,16.24-3.6A6.77,6.77,0,0,0,33,30a5.19,5.19,0,0,0,1-4.48c-0.07-.28-0.34-0.28-0.76-0.07-5.74,3.46-10.78,4-16.8,2.22a45.53,45.53,0,0,0-.83-5.61c-0.14-2.42.62-3.6,5-2.15a13.71,13.71,0,0,1,5.25,2.79c0.46,0.34,1.1.76,1.45,0.46a1.33,1.33,0,0,0,.28-1,11.58,11.58,0,0,0-1.24-4.36,36.1,36.1,0,0,1,3.94,0,2.23,2.23,0,0,1,2,1.52c0.46,1.39,3.18,1,3.39-.14,0.41-2.42.55-5.61-1.8-7.82h0ZM3.25,32.11a25.44,25.44,0,0,0-3.25,0v1.45c1.86-.41,3-0.62,3-0.62Z"></path>
<path d="M20.54,17c-2.42-.55-5.1-1.25-6.5-3.32,0-.07-0.07-0.07-0.14-0.07l0,0a0.07,0.07,0,0,0,0,0,0.62,0.62,0,0,0,.07.34l-0.21.07a1.39,1.39,0,0,1-.07-1.66,1.78,1.78,0,0,1,2.28-.21l-0.07.21a1.52,1.52,0,0,0-1,.07,0.38,0.38,0,0,0-.2.24,0.38,0.38,0,0,0,.06.31c1.17,2.22,4.64,2.7,8.71,2.36A0.49,0.49,0,0,0,24,15a7.85,7.85,0,0,1,1.93-3.67,10.82,10.82,0,0,1-2,.14c-2.07.14-3.32-.14-3.67-0.41l0.07-.21a0.49,0.49,0,0,0,.46,0,0.26,0.26,0,0,0-.07-0.21c-0.39-.37-2.19-2.23-2.19-2.23C18.32,6.77,16,6.77,15.14,8.29l-0.28-.07a2.33,2.33,0,0,1,.34-0.83A4.35,4.35,0,0,0,12,11.11c-0.83,7.06,9.88,5.4,12.93,8.24,0.07,0.07.21,0.28,0.28,0.14s-1.24-1.8-4.7-2.56v0ZM16.82,8.48a1.67,1.67,0,0,1,1.59,1.11c0.35,0.76.28,1.52-.21,1.73a1.55,1.55,0,0,1-1.61-1.1c-0.07-.14-0.07-0.21-0.14-0.34h0.07A0.46,0.46,0,0,0,17,10a0.52,0.52,0,0,0,0-.69,0.64,0.64,0,0,0-.55-0.41l-0.07-.07a0.93,0.93,0,0,1,.41-0.34" style="fill:#fff"></path>
<path d="M32.7,27.55a19.13,19.13,0,0,1-8.92,2.91,24.42,24.42,0,0,1-7.19-.69,10.59,10.59,0,0,1-.21,2.08,28.73,28.73,0,0,0,6.15.76,10.33,10.33,0,0,1-3,5.26c3.71,0.14,7.12-1.31,8.16-3.25a14.11,14.11,0,0,1-4.64.62c0.07-.21.21-0.34,0.28-0.55,3.18-.14,6.64-1.18,7.33-3.81a14.91,14.91,0,0,1-6.77,1.94c0-.21.07-0.34,0.07-0.55,3.71-.46,7.67-2.08,8.71-4.71" style="fill:#fff"></path>
<path d="M62,41.85H59V38.59h2.7a0.57,0.57,0,1,0,0-1.15H59V34.18h3A0.57,0.57,0,1,0,62,33H58.47a0.61,0.61,0,0,0-.66.67v8.62a0.61,0.61,0,0,0,.66.67H62A0.57,0.57,0,1,0,62,41.85Z"></path>
<path d="M64.27,39.28c0,2,1.09,3.81,3.36,3.81,1.27,0,2-.5,2-1a0.46,0.46,0,0,0-.48-0.52,5.84,5.84,0,0,1-1.48.42c-1.53,0-2.13-1.48-2.13-2.74s0.6-2.74,2.13-2.74a8.44,8.44,0,0,1,1.5.39,0.52,0.52,0,0,0,.5-0.52c0-.5-0.74-0.94-2-0.94C65.36,35.47,64.27,37.3,64.27,39.28Z"></path>
<path d="M71.21,36.69h1.57v5.67a0.62,0.62,0,0,0,.6.73A0.63,0.63,0,0,0,74,42.36V36.69h1.55a0.55,0.55,0,0,0,.62-0.57,0.54,0.54,0,0,0-.62-0.56H71.21a0.54,0.54,0,0,0-.62.56A0.55,0.55,0,0,0,71.21,36.69Z"></path>
<path d="M80.8,38.59h-2V36.2a0.63,0.63,0,0,0-.62-0.73,0.62,0.62,0,0,0-.6.73v6.16a0.6,0.6,0,0,0,.7.64h2.25c2,0,2.84-1,2.84-2.23S82.56,38.59,80.8,38.59Zm-0.27,3.32H78.78V39.65h1.75c1.13,0,1.61.41,1.61,1.13S81.43,41.91,80.53,41.91Z"></path>
<path d="M88.85,36.69h1.57v5.67a0.62,0.62,0,0,0,.6.73,0.63,0.63,0,0,0,.62-0.73V36.69h1.55a0.55,0.55,0,0,0,.62-0.57,0.54,0.54,0,0,0-.62-0.56H88.85a0.54,0.54,0,0,0-.62.56A0.55,0.55,0,0,0,88.85,36.69Z"></path>
<path d="M94.89,39.28c0,2,1.18,3.81,3.28,3.81s3.28-1.83,3.28-3.81-1.18-3.81-3.28-3.81S94.89,37.3,94.89,39.28Zm1.23,0c0-1.26.53-2.74,2-2.74s2,1.48,2,2.74S99.68,42,98.17,42,96.13,40.54,96.13,39.28Z"></path>
<path d="M103.74,42.17L103,43.71a1.11,1.11,0,0,0-.15.52,0.55,0.55,0,0,0,.56.53,0.74,0.74,0,0,0,.66-0.52l0.78-1.54a1.11,1.11,0,0,0,.15-0.52,0.55,0.55,0,0,0-.56-0.53A0.74,0.74,0,0,0,103.74,42.17Z"></path>
<path d="M114.38,40.2h1.2v2.16a0.62,0.62,0,0,0,.6.73,0.63,0.63,0,0,0,.62-0.73V36.2a0.63,0.63,0,0,0-.62-0.73,0.62,0.62,0,0,0-.6.73v2.91h-1.13c-1.3,0-2-.53-2-2.25V36.2a0.62,0.62,0,0,0-.6-0.73,0.63,0.63,0,0,0-.62.73V37C111.2,39.29,112.49,40.2,114.38,40.2Z"></path>
<path d="M118.82,36.69h1.57v5.67a0.62,0.62,0,0,0,.6.73,0.63,0.63,0,0,0,.62-0.73V36.69h1.55a0.55,0.55,0,0,0,.62-0.57,0.54,0.54,0,0,0-.62-0.56h-4.34a0.54,0.54,0,0,0-.62.56A0.55,0.55,0,0,0,118.82,36.69Z"></path>
<path d="M124.86,39.28c0,2,1.18,3.81,3.28,3.81s3.28-1.83,3.28-3.81-1.18-3.81-3.28-3.81S124.86,37.3,124.86,39.28Zm1.23,0c0-1.26.53-2.74,2-2.74s2,1.48,2,2.74-0.53,2.74-2,2.74S126.09,40.54,126.09,39.28Z"></path>
<path d="M138.55,42.36V39.7h3.54v2.66a0.62,0.62,0,1,0,1.22,0V36.2a0.62,0.62,0,1,0-1.22,0v2.42h-3.54V36.2a0.62,0.62,0,0,0-.62-0.73,0.61,0.61,0,0,0-.6.73v6.16a0.62,0.62,0,0,0,.6.73A0.63,0.63,0,0,0,138.55,42.36Z"></path>
<path d="M151.66,42.48V36.07a0.57,0.57,0,0,0-.57-0.6,0.56,0.56,0,0,0-.57.6v0.39h0a2.6,2.6,0,0,0-2-1c-2.1,0-3.28,1.83-3.28,3.81s1.18,3.81,3.28,3.81a2.41,2.41,0,0,0,2-1.12h0v0.52a0.56,0.56,0,0,0,.57.6A0.57,0.57,0,0,0,151.66,42.48Zm-5.25-3.21c0-1.26.53-2.74,2-2.74s2,1.48,2,2.74S150,42,148.45,42,146.41,40.54,146.41,39.28Z"></path>
<path d="M153.51,39.28c0,2,1.09,3.81,3.36,3.81,1.27,0,2-.5,2-1a0.46,0.46,0,0,0-.48-0.52,5.84,5.84,0,0,1-1.48.42c-1.53,0-2.13-1.48-2.13-2.74s0.6-2.74,2.13-2.74a8.44,8.44,0,0,1,1.5.39,0.52,0.52,0,0,0,.5-0.52c0-.5-0.74-0.94-2-0.94C154.6,35.47,153.51,37.3,153.51,39.28Z"></path>
<path d="M164.35,39.28c0,2,1.18,3.81,3.28,3.81s3.28-1.83,3.28-3.81-1.18-3.81-3.28-3.81S164.35,37.3,164.35,39.28Zm1.23,0c0-1.26.53-2.74,2-2.74s2,1.48,2,2.74-0.53,2.74-2,2.74S165.59,40.54,165.59,39.28Z"></path>
<path d="M179,39.29c0-2.31-1.11-3.75-3-3.75a2.69,2.69,0,0,0-2.17,1h0a2.52,2.52,0,0,1,2-2.27c0.87-.15,1.61-0.18,2.13-0.29a0.7,0.7,0,0,0,.73-0.6,0.52,0.52,0,0,0-.52-0.59,7.22,7.22,0,0,0-.84.17,14.31,14.31,0,0,0-2.17.36c-1.85.6-2.72,2.48-2.72,5.52,0,2,.74,4.24,3.23,4.24C177.89,43.11,179,41.43,179,39.29Zm-3.21-2.72c1.46,0,1.92,1.26,1.92,2.74,0,1.27-.53,2.74-2,2.74s-2-1.47-2-2.74C173.74,37.37,174.63,36.57,175.82,36.57Z"></path>
<path d="M180.72,36.69h1.57v5.67a0.6,0.6,0,0,0,.7.64h2.25c2,0,2.84-1,2.84-2.23s-0.8-2.18-2.56-2.18h-2V36.1a0.47,0.47,0,0,0-.53-0.55h-2.25a0.54,0.54,0,0,0-.62.56A0.55,0.55,0,0,0,180.72,36.69Zm4.55,5.22h-1.76V39.65h1.76c1.12,0,1.6.41,1.6,1.13S186.15,41.91,185.27,41.91Z"></path>
<path d="M190.46,39.75h4.63a0.57,0.57,0,0,0,.69-0.66,3.39,3.39,0,0,0-3.21-3.63c-2.09,0-3.35,1.79-3.35,3.81s1,3.81,3.42,3.81c1.46,0,3-.92,3-1.53a0.49,0.49,0,0,0-.45-0.55c-0.46,0-.88,1-2.52,1A2.12,2.12,0,0,1,190.46,39.75Zm4.09-.92h-4.09c0-1.13.59-2.35,2.11-2.3A2.1,2.1,0,0,1,194.55,38.83Z"></path>
<path d="M198,44.36V43h5.82v1.36a0.61,0.61,0,0,0,.59.73,0.6,0.6,0,0,0,.59-0.73V42.48a0.58,0.58,0,0,0-.6-0.6H203.8V36.11a0.57,0.57,0,0,0-.64-0.56h-3.21a0.64,0.64,0,0,0-.71.62l-0.7,3.58a3.68,3.68,0,0,1-.91,2.13h-0.21a0.58,0.58,0,0,0-.6.6v1.88a0.61,0.61,0,0,0,.59.73A0.6,0.6,0,0,0,198,44.36Zm1.72-4.12,0.67-3.57h2.2v5.21h-3.51A3.83,3.83,0,0,0,199.71,40.24Z"></path>
<path d="M207.82,42.61l3.53-5v4.79a0.62,0.62,0,1,0,1.22,0v-6.2a0.6,0.6,0,0,0-.59-0.69,0.89,0.89,0,0,0-.74.48l-3.47,5V36.2a0.62,0.62,0,0,0-.62-0.73,0.61,0.61,0,0,0-.6.73v6.17a0.57,0.57,0,0,0,.57.71A0.79,0.79,0,0,0,207.82,42.61Z"></path>
<path d="M216,42.36V39.7h3.54v2.66a0.62,0.62,0,1,0,1.22,0V36.2a0.62,0.62,0,1,0-1.22,0v2.42H216V36.2a0.62,0.62,0,0,0-.62-0.73,0.61,0.61,0,0,0-.6.73v6.16a0.62,0.62,0,0,0,.6.73A0.63,0.63,0,0,0,216,42.36Z"></path>
<path d="M223.84,42.66l3-2.77v2.53a0.56,0.56,0,0,0,.59.66,0.59,0.59,0,0,0,.63-0.66V36.18a0.6,0.6,0,0,0-.71-0.63h-2c-1.9,0-2.8,1-2.8,2.24a2,2,0,0,0,2.16,2h0.6L223,41.92a0.86,0.86,0,0,0-.39.64,0.51,0.51,0,0,0,.55.52A1,1,0,0,0,223.84,42.66Zm1.48-6h1.54v2.3h-1.6c-1,0-1.51-.42-1.51-1.15S224.37,36.63,225.32,36.63Z"></path>
<path d="M231.05,39.75h4.63a0.57,0.57,0,0,0,.69-0.66,3.39,3.39,0,0,0-3.21-3.63c-2.09,0-3.35,1.79-3.35,3.81s1,3.81,3.42,3.81c1.46,0,3-.92,3-1.53a0.49,0.49,0,0,0-.45-0.55c-0.46,0-.88,1-2.52,1A2.12,2.12,0,0,1,231.05,39.75Zm4.09-.92h-4.09c0-1.13.59-2.35,2.11-2.3A2.1,2.1,0,0,1,235.14,38.83Z"></path>
<path d="M237.93,36.69h1.57v5.67a0.62,0.62,0,0,0,.6.73,0.63,0.63,0,0,0,.62-0.73V36.69h1.55a0.55,0.55,0,0,0,.62-0.57,0.54,0.54,0,0,0-.62-0.56h-4.34a0.54,0.54,0,0,0-.62.56A0.55,0.55,0,0,0,237.93,36.69Z"></path>
</svg>